<svg width="33" height="31" viewBox="0 0 33 31" fill="none" xmlns="http://www.w3.org/2000/svg">
<path d="M11.0377 24.9612C11.0377 25.0894 10.8847 25.1919 10.6917 25.1919C10.4722 25.2112 10.3192 25.1086 10.3192 24.9612C10.3192 24.833 10.4722 24.7304 10.6651 24.7304C10.8647 24.7112 11.0377 24.8137 11.0377 24.9612ZM8.96855 24.6727C8.92198 24.8009 9.05504 24.9483 9.25464 24.9868C9.42762 25.0509 9.62722 24.9868 9.66714 24.8586C9.70706 24.7304 9.58065 24.583 9.38105 24.5253C9.20807 24.4804 9.01512 24.5445 8.96855 24.6727ZM11.9093 24.5637C11.7163 24.6086 11.5833 24.7304 11.6032 24.8778C11.6232 25.006 11.7962 25.0894 11.9958 25.0445C12.1887 24.9996 12.3218 24.8778 12.3018 24.7496C12.2819 24.6278 12.1022 24.5445 11.9093 24.5637ZM16.2871 0C7.05907 0 0 6.7499 0 15.6408C0 22.7496 4.64395 28.8329 11.2772 30.9739C12.1288 31.1213 12.4282 30.6149 12.4282 30.1983C12.4282 29.8008 12.4083 27.6085 12.4083 26.2624C12.4083 26.2624 7.75101 27.2239 6.77298 24.3522C6.77298 24.3522 6.01452 22.4868 4.92339 22.0061C4.92339 22.0061 3.3998 20.9997 5.02984 21.0189C5.02984 21.0189 6.68649 21.1471 7.59798 22.6727C9.05504 25.147 11.4968 24.4355 12.4482 24.0125C12.6012 22.9868 13.0337 22.2753 13.5127 21.8522C9.79355 21.4548 6.04113 20.9356 6.04113 14.769C6.04113 13.0062 6.54677 12.1216 7.61129 10.9934C7.43831 10.5768 6.87278 8.85884 7.78427 6.64092C9.1748 6.22426 12.375 8.37167 12.375 8.37167C13.7056 8.0127 15.1361 7.8268 16.5532 7.8268C17.9704 7.8268 19.4008 8.0127 20.7315 8.37167C20.7315 8.37167 23.9317 6.21785 25.3222 6.64092C26.2337 8.86525 25.6681 10.5768 25.4952 10.9934C26.5597 12.128 27.2117 13.0126 27.2117 14.769C27.2117 20.9548 23.2929 21.4484 19.5738 21.8522C20.1859 22.3586 20.7048 23.3202 20.7048 24.8265C20.7048 26.9868 20.6849 29.6598 20.6849 30.1854C20.6849 30.6021 20.9909 31.1085 21.8359 30.9611C28.4891 28.8329 33 22.7496 33 15.6408C33 6.7499 25.5151 0 16.2871 0ZM6.46694 22.1086C6.38044 22.1727 6.4004 22.3202 6.51351 22.442C6.61996 22.5445 6.77298 22.5894 6.85948 22.5061C6.94597 22.442 6.92601 22.2945 6.8129 22.1727C6.70645 22.0702 6.55343 22.0253 6.46694 22.1086ZM5.74839 21.5894C5.70181 21.6727 5.76835 21.7753 5.90141 21.8394C6.00786 21.9035 6.14093 21.8843 6.1875 21.7945C6.23407 21.7112 6.16754 21.6086 6.03448 21.5445C5.90141 21.5061 5.79496 21.5253 5.74839 21.5894ZM7.90403 23.8714C7.79758 23.9548 7.8375 24.1471 7.99052 24.2689C8.14355 24.4163 8.33649 24.4355 8.42298 24.333C8.50948 24.2496 8.46956 24.0573 8.33649 23.9355C8.19012 23.7881 7.99052 23.7689 7.90403 23.8714ZM7.14557 22.9291C7.03911 22.9932 7.03911 23.1599 7.14557 23.3073C7.25202 23.4548 7.43165 23.5189 7.51815 23.4548C7.6246 23.3714 7.6246 23.2048 7.51815 23.0573C7.425 22.9099 7.25202 22.8458 7.14557 22.9291Z" fill="white"/>
</svg>
