<svg width="524" height="524" viewBox="0 0 524 524" fill="none" xmlns="http://www.w3.org/2000/svg">
<rect width="524" height="524" rx="40" fill="white"/>
<path d="M309.4 367L266.5 305.5C264.7 305.7 262 305.8 258.4 305.8H211V367H172V157H258.4C276.6 157 292.4 160 305.8 166C319.4 172 329.8 180.6 337 191.8C344.2 203 347.8 216.3 347.8 231.7C347.8 247.5 343.9 261.1 336.1 272.5C328.5 283.9 317.5 292.4 303.1 298L351.4 367H309.4ZM308.5 231.7C308.5 218.3 304.1 208 295.3 200.8C286.5 193.6 273.6 190 256.6 190H211V273.7H256.6C273.6 273.7 286.5 270.1 295.3 262.9C304.1 255.5 308.5 245.1 308.5 231.7Z" fill="#14C48A"/>
</svg>
